<svg width="1744" height="438" viewBox="0 0 1744 438" fill="none" xmlns="http://www.w3.org/2000/svg">
<path d="M437.142 228.5L468.933 290.151H519.032L478.409 214.199L546.552 146.611H499.583L440.184 205.074L447.203 146.582H402.837L385.728 290.151H429.714L437.142 228.5ZM588.17 208.233C588.462 204.255 590.217 192.44 605.279 192.44H621.218C621.218 192.44 619.755 206.566 618.878 212.269L613.935 252.19C613.146 257.98 611.508 269.123 596.183 269.123H580.01L588.17 208.233ZM563.369 290.122H623.148C644.059 290.122 654.441 282.021 656.781 263.8L664.531 200.541C665.613 191.504 664.444 185.187 660.905 181.209C657.103 176.91 650.084 174.366 638.882 174.366H578.84C563.866 174.366 547.605 176.91 544.681 200.98L536.93 264.239C535.761 273.305 536.93 279.681 540.586 283.834C544.593 288.396 551.612 290.151 563.369 290.151M732.265 208.233C733.435 198.64 740.162 192.44 749.374 192.44H765.606L762.009 222.388L730.364 222.68L732.265 208.233ZM707.201 290.122H768.034C788.74 290.122 798.567 282.343 801.082 264.034L801.901 257.6H757.768C755.107 267.485 745.982 269.123 740.805 269.123H724.954L728.054 242.392H803.714L808.861 200.278C809.914 191.562 808.656 185.362 805.059 181.326C801.023 176.764 793.741 174.366 782.189 174.366H724.281C701.235 174.366 691.35 182.204 689.04 200.98L681.026 264.268C679.944 273.13 681.172 279.447 684.828 283.571C688.835 288.133 695.737 290.151 707.201 290.151M1377.46 208.233C1378.63 198.64 1385.36 192.44 1394.54 192.44H1410.81L1407.21 222.388L1375.56 222.68L1377.46 208.233ZM1352.37 290.122H1413.2C1433.97 290.122 1443.77 282.343 1446.28 264.034L1447.1 257.6H1402.97C1400.31 267.485 1391.15 269.123 1386 269.123H1370.12L1373.25 242.392H1448.91L1454.03 200.278C1455.08 191.562 1453.86 185.362 1450.26 181.326C1446.22 176.764 1438.94 174.366 1427.36 174.366H1369.45C1346.43 174.366 1336.55 182.204 1334.24 200.98L1326.23 264.268C1325.11 273.13 1326.37 279.447 1330.03 283.571C1334.03 288.133 1340.94 290.151 1352.37 290.151M876.098 213.877C876.098 213.877 886.1 205.63 892.768 200.804C899.407 196.008 909.907 194.604 909.907 194.604C909.907 194.604 907.976 209.315 907.625 212.737L898.237 290.151H942.487L953.22 200.541C954.361 191.475 953.162 185.041 949.506 180.917C945.733 176.618 939.124 174.366 928.653 174.366H918.505C904.847 174.366 895.079 181.209 895.079 181.209L878.467 194.37L880.894 174.366H836.645L822.461 290.151H866.681L876.098 213.877ZM966.527 290.151H1010.75L1024.58 174.366H980.536L966.527 290.151ZM1119.46 211.538L1114.63 250.347C1114.63 250.347 1105.91 269.123 1085.97 269.123H1081.06L1088.63 208.233C1089.57 200.073 1094.45 192.469 1105.8 192.469C1110.48 192.411 1121.47 192.469 1121.47 192.469L1119.46 211.538ZM1076.73 174.366C1057.19 174.366 1047.54 182.496 1045.49 200.687L1037.74 262.923C1036.66 271.755 1037.89 278.073 1041.54 282.167C1045.35 286.466 1052.04 290.151 1062.02 290.151H1078.6C1101.26 290.151 1112.38 269.094 1112.38 269.094L1107.41 307.406H1032.83L1030.66 328.844H1116.47C1132.85 328.844 1149.9 325.89 1152.5 303.838L1168 174.366H1076.73ZM1551.63 211.538L1546.8 250.347C1546.8 250.347 1538.08 269.123 1518.14 269.123H1513.23L1520.8 208.233C1521.74 200.073 1526.62 192.469 1538 192.469C1542.68 192.411 1553.67 192.469 1553.67 192.469L1551.63 211.538ZM1508.9 174.366C1489.36 174.366 1479.71 182.496 1477.69 200.687L1469.91 262.923C1468.83 271.755 1470.09 278.073 1473.71 282.167C1477.52 286.466 1484.21 290.151 1494.19 290.151H1510.77C1533.46 290.151 1544.55 269.094 1544.55 269.094L1539.58 307.406H1465L1462.83 328.844H1548.64C1565.02 328.844 1582.07 325.89 1584.67 303.838L1600.17 174.366H1508.9ZM1695.2 211.538L1690.37 250.347C1690.37 250.347 1681.65 269.123 1661.71 269.123H1656.8L1664.37 208.233C1665.31 200.073 1670.22 192.469 1681.57 192.469C1686.25 192.411 1697.24 192.469 1697.24 192.469L1695.2 211.538ZM1652.5 174.366C1632.9 174.366 1623.28 182.496 1621.26 200.687L1613.48 262.923C1612.4 271.755 1613.66 278.073 1617.28 282.167C1621.09 286.466 1627.78 290.151 1637.76 290.151H1654.34C1677.03 290.151 1688.12 269.094 1688.12 269.094L1683.15 307.406H1608.6L1606.4 328.844H1692.21C1708.59 328.844 1725.64 325.89 1728.24 303.838L1743.74 174.366H1652.5ZM1209.59 290.151H1268.58C1289.76 290.151 1300.61 281.173 1302.74 262.982L1304.58 247.51C1305.67 239.292 1304.58 233.355 1301.19 229.378C1295.63 222.827 1284.46 221.891 1274.58 221.569H1231.23L1232.67 208.525C1234.19 196.651 1242.9 192.44 1250.57 192.44H1265.36L1264.02 208.233H1308.47L1309.67 199.956C1310.7 191.094 1309.38 184.748 1305.58 180.595C1301.69 176.267 1294.99 174.219 1285.16 174.366H1221.32C1202.02 174.366 1192.4 182.496 1190.11 200.746L1187.98 216.509C1186.81 226.307 1188.04 233.121 1191.72 237.362C1197.28 243.679 1208.28 243.825 1218.95 243.972H1260.89L1260.01 250.61C1259.69 255.056 1257.2 269.123 1240.53 269.123H1225.56L1226.91 257.63H1181.93L1181.31 263.683C1180.14 272.633 1181.31 278.95 1184.94 283.074C1190.23 289.128 1200.44 290.151 1209.59 290.151ZM157.403 89.4348C143.394 89.4348 116.195 97.0388 76.5665 112.042C53.7544 120.67 33.0189 129.473 25.1517 132.865L20.9987 134.679L21.5252 139.183C23.4847 156.145 28.1348 189.778 37.2304 224.523C50.8591 276.669 82.0647 351.393 153.484 411.113L157.403 414.418L161.322 411.113C232.741 351.393 263.976 276.669 277.575 224.523C286.642 189.778 291.321 156.145 293.281 139.183L293.807 134.679L289.654 132.865C272.666 125.559 255.524 118.617 238.239 112.042C198.611 97.0388 171.412 89.4348 157.403 89.4348ZM157.403 95.5473C166.528 95.5473 187.556 99.4078 236.075 117.774C258.507 126.256 278.774 134.825 287.256 138.481C283.955 166.969 278.757 195.206 271.697 223.002C258.214 274.563 227.447 347.854 157.403 406.434C87.3583 347.854 56.5913 274.563 43.1088 222.973C36.0592 195.176 30.8711 166.939 27.5791 138.451C36.0605 134.825 56.2989 126.256 78.7307 117.774C127.25 99.4078 148.278 95.5473 157.403 95.5473Z" fill="#231F20"/>
<path d="M157.403 133.918L211.742 117.16C188.667 109.147 168.019 103.327 157.403 103.327C146.786 103.327 126.109 109.176 103.063 117.16L157.403 133.918Z" fill="#231F20"/>
<path d="M157.403 177.524L234.408 155.794L275.353 167.347C276.815 158.046 277.985 149.828 278.804 143.306L278.54 143.189L234.408 155.648L157.403 133.918L80.1052 155.707L157.403 177.524ZM36.0313 143.394C36.8502 149.857 37.9615 157.929 39.4531 167.083L79.6958 155.707L36.0313 143.394ZM42.7579 185.713C44.3079 193.873 46.1212 202.442 48.2269 211.216L86.7734 199.313L157.403 221.101L228.032 199.313L266.579 211.216C268.685 202.442 270.498 193.873 272.077 185.713L228.032 199.313L157.403 177.524L86.7734 199.313L42.7579 185.713ZM52.8478 228.997C55.129 236.952 57.8197 245.346 60.949 254.032L93.5292 242.948L157.403 264.707L221.393 242.919L253.857 253.974C257.015 245.317 259.706 237.011 261.929 229.085L221.393 242.919L157.403 221.101L93.5292 242.86L52.8478 228.997ZM157.403 308.284L210.397 286.495L157.403 264.707L104.409 286.495L157.403 308.284ZM79.6081 296.702L104.409 286.495L67.7634 271.434C71.2729 279.681 75.1919 288.133 79.6081 296.702ZM247.042 271.434L210.397 286.495L235.198 296.702C239.614 288.133 243.562 279.681 247.042 271.434ZM157.403 351.89L197.002 330.101L157.403 308.284L117.804 330.101L157.403 351.89ZM222.008 320.012L197.002 330.101L210.953 336.77C214.462 331.681 218.849 325.071 222.008 320.012ZM92.8273 320.012L117.804 330.101L103.853 336.77C100.344 331.681 95.9567 325.071 92.8273 320.012ZM155.268 394.297L157.403 395.467L159.538 394.297C169.248 385.698 178.168 376.808 186.298 367.741L157.403 351.89L128.508 367.741C136.638 376.808 145.558 385.698 155.268 394.297ZM130.935 61.9726L126.548 66.3595C130.207 70.0266 135.154 72.1188 140.333 72.1898C145.513 72.2608 150.516 70.3051 154.274 66.7397V78.2627H160.532V66.7397C164.291 70.3108 169.296 72.2725 174.481 72.207C179.665 72.1414 184.619 70.0537 188.287 66.3888L183.9 62.0019C181.984 63.9254 179.54 65.2369 176.878 65.7704C174.215 66.3039 171.455 66.0353 168.945 64.9987C166.436 63.9621 164.291 62.2041 162.781 59.9473C161.272 57.6905 160.466 55.0365 160.466 52.3214C160.466 49.6063 161.272 46.9523 162.781 44.6955C164.291 42.4387 166.436 40.6807 168.945 39.644C171.455 38.6074 174.215 38.3388 176.878 38.8723C179.54 39.4058 181.984 40.7174 183.9 42.6409L188.287 38.2247C184.614 34.5579 179.655 32.4694 174.466 32.4039C169.277 32.3383 164.267 34.3009 160.503 37.8738V26.3215H154.274V37.8445C150.507 34.2843 145.501 32.3324 140.319 32.4034C135.137 32.4743 130.186 34.5626 126.519 38.2247L130.906 42.6116C132.82 40.6981 135.259 39.3951 137.914 38.8675C140.569 38.3398 143.321 38.6113 145.821 39.6474C148.322 40.6835 150.459 42.4378 151.963 44.6886C153.467 46.9393 154.269 49.5853 154.269 52.2921C154.269 54.9989 153.467 57.645 151.963 59.8957C150.459 62.1464 148.322 63.9007 145.821 64.9369C143.321 65.973 140.569 66.2444 137.914 65.7168C135.259 65.1892 132.85 63.8862 130.935 61.9726Z" fill="#231F20"/>
<path d="M4.62089 98.3841C4.57178 99.6313 4.55228 100.879 4.5624 102.128C4.5624 102.654 4.76712 156.525 23.4847 228.179C38.3417 285.033 72.8522 365.987 152.899 428.983C152.899 428.983 155.005 430.65 157.403 432.346C159.801 430.65 161.907 429.012 161.907 428.983C241.954 365.987 276.464 285.033 291.321 228.179C310.039 156.525 310.243 102.654 310.243 102.128L310.185 98.3841C307.26 95.8397 296.293 86.2469 291.76 82.5327C230.197 31.6444 160.357 5.96622 159.684 5.73225L157.403 4.91336L155.209 5.703C154.478 5.99546 84.6384 31.6444 23.0167 82.5327C18.5128 86.2469 7.51626 95.8397 4.62089 98.3841ZM158.134 437.406H156.73L156.145 437.025C153.133 434.978 150.208 432.668 150.091 432.58C69.0502 368.823 34.101 286.846 19.0685 229.319C0.23397 157.081 0 102.683 0 102.098C0 98.7058 0.146231 97.1265 0.146231 97.068L0.204723 96.1614L0.906631 95.5765C1.05286 95.4302 14.8863 83.2931 20.1214 78.9939C82.6204 27.3744 153.045 1.60854 153.689 1.40382L157.403 0L161.205 1.43306C161.79 1.60854 232.185 27.3744 294.684 78.9939C299.949 83.3223 313.782 95.4302 313.899 95.5472L314.601 96.1614L314.689 97.0388C314.689 97.1265 314.835 98.7058 314.835 102.128C314.835 102.654 314.601 157.11 295.737 229.348C280.734 286.846 245.785 368.823 164.744 432.609C164.627 432.668 161.702 434.978 158.69 436.996L158.134 437.406Z" fill="#231F20"/>
</svg>
